# xmcd
#
# Track frame offsets: 
#        150
#        11366
#        25691
#        45725
#        61429
#        75273
#        94989
#        111221
#        123798
#        140248
#        157117
#        174803
#        192531
#        204785
#        218345
#        231661
#        245110
#        257704
#        272779
#        287461
#        300624
#        314495
#        327845
#        340127
#
# Disc length: 4710 seconds
#
# Revision: 0
# Processed by: cddbd v1.5.2PL0 Copyright (c) Steve Scherf et al.
# Submitted via: ExactAudioCopyFreeDBPlugin 1.0
#
DISCID=54126418
DTITLE=John Lee Hooker - That's My Story and House Of The Blues
DYEAR=2013
DGENRE=Blues
TTITLE0=I Need Some Money
TTITLE1=Come On And See About Me
TTITLE2=I'm Wanderin'
TTITLE3=Democrat Man
TTITLE4=I Want To Talk About You
TTITLE5=Gonna Use My Rod
TTITLE6=Wednesday Evenin' Blues
TTITLE7=No More Doggin'
TTITLE8=One Of These Days
TTITLE9=I Believe I'll Go Back Home
TTITLE10=You're Livin' Me, Baby
TTITLE11=That's My Story
TTITLE12=Walkin' The Boogie
TTITLE13=Love Blues
TTITLE14=Union Station Blues
TTITLE15=It's My Own Fault
TTITLE16=Leave My Wife Alone
TTITLE17=Ramblin' By Myself
TTITLE18=Sugar Mama
TTITLE19=Down At The Landing
TTITLE20=Louise
TTITLE21=Ground Hog Blues
TTITLE22=High Priced Woman
TTITLE23=Women And Money
EXTD=
EXTT0=
EXTT1=
EXTT2=
EXTT3=
EXTT4=
EXTT5=
EXTT6=
EXTT7=
EXTT8=
EXTT9=
EXTT10=
EXTT11=
EXTT12=
EXTT13=
EXTT14=
EXTT15=
EXTT16=
EXTT17=
EXTT18=
EXTT19=
EXTT20=
EXTT21=
EXTT22=
EXTT23=
PLAYORDER=
